<svg xmlns="http://www.w3.org/2000/svg" width="30" height="26.25" viewBox="0 0 30 26.25">
  <g id="Icon_awesome-share" data-name="Icon awesome-share" transform="translate(0 -2.25)" fill="none">
    <path d="M29.513,11.5,19.2,2.593a1.407,1.407,0,0,0-2.325,1.064V8.348C7.463,8.455,0,10.342,0,19.261a11.978,11.978,0,0,0,4.883,9.031A1.044,1.044,0,0,0,6.528,27.2c-2.657-8.5,1.26-10.753,10.347-10.883v5.151A1.407,1.407,0,0,0,19.2,22.533l10.313-8.906A1.407,1.407,0,0,0,29.513,11.5Z" stroke="none"/>
    <path d="M 18.875 4.954319000244141 L 18.875 8.347734451293945 L 18.875 10.32496452331543 L 16.89789962768555 10.34760475158691 C 11.7347583770752 10.40671348571777 8.220718383789063 11.01764488220215 5.838998794555664 12.27023506164551 C 4.575828552246094 12.9345645904541 3.658628463745117 13.77049446105957 3.034999847412109 14.82580471038818 C 2.33854866027832 16.00432395935059 1.999998092651367 17.45518493652344 1.999998092651367 19.26129531860352 C 1.999998092651367 20.59989547729492 2.420598983764648 22.04315567016602 3.216339111328125 23.43504333496094 C 3.406654357910156 23.76794242858887 3.614843368530273 24.09137153625488 3.837711334228516 24.40168762207031 C 3.492464065551758 21.8085994720459 3.896093368530273 19.74700736999512 5.051488876342773 18.1512451171875 C 7.413698196411133 14.88869476318359 12.33940887451172 14.38253402709961 16.84622955322266 14.31769371032715 L 18.875 14.28850364685059 L 18.875 16.31748390197754 L 18.875 20.17148590087891 L 27.68557929992676 12.56252670288086 L 18.875 4.954319000244141 M 18.29035949707031 2.250007629394531 C 18.60541915893555 2.250009536743164 18.92680358886719 2.356540679931641 19.20040893554688 2.59283447265625 L 29.51314926147461 11.49820518493652 C 30.1627197265625 12.05924415588379 30.1618480682373 13.06652450561523 29.51314926147461 13.62680435180664 L 19.20040893554688 22.53305435180664 C 18.92691802978516 22.76925277709961 18.60537719726563 22.87582588195801 18.29009628295898 22.87582588195801 C 17.5660285949707 22.87582588195801 16.875 22.313720703125 16.875 21.46875381469727 L 16.875 16.31748390197754 C 7.788108825683594 16.44821548461914 3.871059417724609 18.70394515991211 6.527929306030273 27.20080375671387 C 6.749940872192383 27.91077423095703 6.159032821655273 28.50004768371582 5.511991500854492 28.50004768371582 C 5.299388885498047 28.50004768371582 5.080638885498047 28.43637657165527 4.882789611816406 28.29246520996094 C 2.319198608398438 26.42783355712891 -1.9073486328125e-06 22.86135482788086 -1.9073486328125e-06 19.26129531860352 C -1.9073486328125e-06 10.34179496765137 7.46314811706543 8.455493927001953 16.875 8.347734451293945 L 16.875 3.657135009765625 C 16.875 2.813175201416016 17.56596565246582 2.250005722045898 18.29035949707031 2.250007629394531 Z" stroke="none" fill="#083229"/>
  </g>
</svg>
